<mxfile host="Electron" agent="Mozilla/5.0 (Windows NT 10.0; Win64; x64) AppleWebKit/537.36 (KHTML, like Gecko) draw.io/26.2.2 Chrome/134.0.6998.178 Electron/35.1.2 Safari/537.36" version="26.2.2">
  <diagram name="Page-1" id="SfqFHsFNGNqVCVZy7Byx">
    <mxGraphModel dx="860" dy="610" grid="0" gridSize="1" guides="1" tooltips="1" connect="1" arrows="1" fold="1" page="1" pageScale="1" pageWidth="196850" pageHeight="196850" background="none" math="0" shadow="0">
      <root>
        <mxCell id="0" />
        <mxCell id="1" parent="0" />
        <mxCell id="qmeBu4S3jbax9dmzvrjf-70" value="&lt;font size=&quot;1&quot;&gt;&lt;b&gt;3&lt;/b&gt;&lt;/font&gt;" style="html=1;dashed=0;whiteSpace=wrap;shape=mxgraph.dfd.dataStoreID;align=left;spacingLeft=3;points=[[0,0],[0.5,0],[1,0],[0,0.5],[1,0.5],[0,1],[0.5,1],[1,1]];fillColor=#e1d5e7;strokeColor=#9673a6;comic=0;enumerate=0;treeMoving=0;treeFolding=0;resizeHeight=1;resizeWidth=1;flipH=0;flipV=0;" parent="1" vertex="1">
          <mxGeometry x="1431" y="624" width="202" height="58" as="geometry" />
        </mxCell>
        <mxCell id="1iTUAPz-zUR7rCR0ceSa-26" value="" style="rounded=0;whiteSpace=wrap;html=1;fillColor=#dae8fc;strokeColor=#6c8ebf;" parent="1" vertex="1">
          <mxGeometry x="170" y="65" width="575" height="972" as="geometry" />
        </mxCell>
        <mxCell id="1iTUAPz-zUR7rCR0ceSa-23" value="Data Process" style="swimlane;fontStyle=0;childLayout=stackLayout;horizontal=1;startSize=36;horizontalStack=0;resizeParent=1;resizeParentMax=0;resizeLast=0;collapsible=0;marginBottom=0;swimlaneFillColor=#ffffff;fillColor=#f8cecc;strokeColor=#b85450;rounded=1;shadow=1;" parent="1" vertex="1">
          <mxGeometry x="241" y="643" width="147" height="124" as="geometry" />
        </mxCell>
        <mxCell id="1iTUAPz-zUR7rCR0ceSa-24" value="&lt;font style=&quot;font-size: 9px;&quot;&gt;&lt;b&gt;Data&amp;nbsp;&lt;/b&gt;&lt;/font&gt;&lt;div&gt;&lt;font style=&quot;font-size: 9px;&quot;&gt;&lt;b&gt;Store&lt;/b&gt;&lt;/font&gt;&lt;/div&gt;" style="html=1;dashed=0;whiteSpace=wrap;shape=mxgraph.dfd.dataStoreID;align=left;spacingLeft=3;points=[[0,0],[0.5,0],[1,0],[0,0.5],[1,0.5],[0,1],[0.5,1],[1,1]];fillColor=#e1d5e7;strokeColor=#9673a6;comic=0;enumerate=0;treeMoving=0;treeFolding=0;resizeHeight=1;resizeWidth=1;flipH=0;flipV=0;" parent="1" vertex="1">
          <mxGeometry x="209" y="480" width="202" height="58" as="geometry" />
        </mxCell>
        <mxCell id="1iTUAPz-zUR7rCR0ceSa-25" value="&lt;b&gt;&lt;font style=&quot;font-size: 9px;&quot;&gt;Entity&lt;/font&gt;&lt;/b&gt;" style="html=1;dashed=0;whiteSpace=wrap;fillColor=#fff2cc;strokeColor=#d6b656;rounded=0;glass=0;shadow=1;" parent="1" vertex="1">
          <mxGeometry x="257" y="256" width="120" height="108" as="geometry" />
        </mxCell>
        <mxCell id="1iTUAPz-zUR7rCR0ceSa-27" value="&lt;h1 style=&quot;margin-top: 0px;&quot;&gt;Entity&lt;/h1&gt;&lt;p&gt;The Enity represented by Square is a Shape that interact with the system by sending or receiving informations.&lt;/p&gt;" style="text;html=1;whiteSpace=wrap;overflow=hidden;rounded=0;fontStyle=0;horizontal=1;verticalAlign=middle;align=left;fontColor=light-dark(#000000,#121212);" parent="1" vertex="1">
          <mxGeometry x="528" y="246" width="180" height="120" as="geometry" />
        </mxCell>
        <mxCell id="GoHEcweU7X1IVzDICbqi-2" value="" style="line;strokeWidth=4;html=1;perimeter=backbonePerimeter;points=[];outlineConnect=0;" parent="1" vertex="1">
          <mxGeometry x="169" y="397" width="576" height="10" as="geometry" />
        </mxCell>
        <mxCell id="GoHEcweU7X1IVzDICbqi-3" value="" style="line;strokeWidth=4;direction=south;html=1;perimeter=backbonePerimeter;points=[];outlineConnect=0;" parent="1" vertex="1">
          <mxGeometry x="464" y="165" width="10" height="874" as="geometry" />
        </mxCell>
        <mxCell id="GoHEcweU7X1IVzDICbqi-4" value="Gane and Sarson&amp;nbsp; DFD Legend" style="shape=partialRectangle;whiteSpace=wrap;html=1;left=0;right=0;fillColor=#fff2cc;strokeColor=#d6b656;" parent="1" vertex="1">
          <mxGeometry x="408" y="77" width="137" height="60" as="geometry" />
        </mxCell>
        <mxCell id="GoHEcweU7X1IVzDICbqi-5" value="" style="shape=curlyBracket;whiteSpace=wrap;html=1;rounded=1;labelPosition=left;verticalLabelPosition=middle;align=right;verticalAlign=middle;" parent="1" vertex="1">
          <mxGeometry x="398" y="77" width="20" height="60" as="geometry" />
        </mxCell>
        <mxCell id="GoHEcweU7X1IVzDICbqi-6" value="" style="shape=curlyBracket;whiteSpace=wrap;html=1;rounded=1;flipH=1;labelPosition=right;verticalLabelPosition=middle;align=left;verticalAlign=middle;" parent="1" vertex="1">
          <mxGeometry x="536" y="77" width="20" height="60" as="geometry" />
        </mxCell>
        <mxCell id="GoHEcweU7X1IVzDICbqi-7" value="" style="line;strokeWidth=4;html=1;perimeter=backbonePerimeter;points=[];outlineConnect=0;" parent="1" vertex="1">
          <mxGeometry x="170" y="211" width="575" height="10" as="geometry" />
        </mxCell>
        <mxCell id="GoHEcweU7X1IVzDICbqi-12" value="Shapes" style="text;html=1;align=center;verticalAlign=middle;whiteSpace=wrap;rounded=0;" parent="1" vertex="1">
          <mxGeometry x="287" y="177" width="60" height="30" as="geometry" />
        </mxCell>
        <mxCell id="GoHEcweU7X1IVzDICbqi-13" value="Description" style="text;html=1;align=center;verticalAlign=middle;whiteSpace=wrap;rounded=0;" parent="1" vertex="1">
          <mxGeometry x="594" y="177" width="60" height="30" as="geometry" />
        </mxCell>
        <mxCell id="GoHEcweU7X1IVzDICbqi-14" value="" style="line;strokeWidth=4;html=1;perimeter=backbonePerimeter;points=[];outlineConnect=0;" parent="1" vertex="1">
          <mxGeometry x="171" y="212" width="575" height="10" as="geometry" />
        </mxCell>
        <mxCell id="GoHEcweU7X1IVzDICbqi-15" value="" style="line;strokeWidth=4;html=1;perimeter=backbonePerimeter;points=[];outlineConnect=0;" parent="1" vertex="1">
          <mxGeometry x="170" y="163" width="575" height="10" as="geometry" />
        </mxCell>
        <mxCell id="GoHEcweU7X1IVzDICbqi-16" value="" style="line;strokeWidth=4;html=1;perimeter=backbonePerimeter;points=[];outlineConnect=0;" parent="1" vertex="1">
          <mxGeometry x="169" y="619" width="576" height="10" as="geometry" />
        </mxCell>
        <mxCell id="GoHEcweU7X1IVzDICbqi-45" value="&lt;h1 style=&quot;margin-top: 0px;&quot;&gt;Data Store&lt;/h1&gt;&lt;p&gt;The Data Store represented by Open ended Rectangle is a Shape that store processed and sent informations.&lt;span style=&quot;color: rgba(0, 0, 0, 0); font-family: monospace; font-size: 0px; text-wrap-mode: nowrap; background-color: transparent;&quot;&gt;%3CmxGraphModel%3E%3Croot%3E%3CmxCell%20id%3D%220%22%2F%3E%3CmxCell%20id%3D%221%22%20parent%3D%220%22%2F%3E%3CmxCell%20id%3D%222%22%20value%3D%22%26lt%3Bh1%20style%3D%26quot%3Bmargin-top%3A%200px%3B%26quot%3B%26gt%3BEntity%26lt%3B%2Fh1%26gt%3B%26lt%3Bp%26gt%3BThe%20Enity%20represented%20by%20Square%20is%20a%20User%20that%20interact%20with%20the%20system%20by%20sending%20or%20receiving%20informations.%26lt%3B%2Fp%26gt%3B%22%20style%3D%22text%3Bhtml%3D1%3BwhiteSpace%3Dwrap%3Boverflow%3Dhidden%3Brounded%3D0%3BfontStyle%3D0%3Bhorizontal%3D1%3BverticalAlign%3Dmiddle%3Balign%3Dleft%3BfontColor%3Dlight-dark(%23000000%2C%23121212)%3B%22%20vertex%3D%221%22%20parent%3D%221%22%3E%3CmxGeometry%20x%3D%22528%22%20y%3D%22246%22%20width%3D%22180%22%20height%3D%22120%22%20as%3D%22geometry%22%2F%3E%3C%2FmxCell%3E%3C%2Froot%3E%3C%2FmxGraphModel%3E&lt;/span&gt;&lt;/p&gt;" style="text;html=1;whiteSpace=wrap;overflow=hidden;rounded=0;fontStyle=0;horizontal=1;verticalAlign=middle;align=left;fontColor=light-dark(#000000,#121212);" parent="1" vertex="1">
          <mxGeometry x="509" y="437" width="180" height="120" as="geometry" />
        </mxCell>
        <mxCell id="GoHEcweU7X1IVzDICbqi-46" value="&lt;h1 style=&quot;margin-top: 0px;&quot;&gt;Data Process&lt;/h1&gt;&lt;p&gt;The Data Process represented by Rounded Square is a Shape that processed and manage informations.&lt;span style=&quot;color: rgba(0, 0, 0, 0); font-family: monospace; font-size: 0px; text-wrap-mode: nowrap; background-color: transparent;&quot;&gt;%3CmxGraphModel%3E%3Croot%3E%3CmxCell%20id%3D%220%22%2F%3E%3CmxCell%20id%3D%221%22%20parent%3D%220%22%2F%3E%3CmxCell%20id%3D%222%22%20value%3D%22%26lt%3Bh1%20style%3D%26quot%3Bmargin-top%3A%200px%3B%26quot%3B%26gt%3BEntity%26lt%3B%2Fh1%26gt%3B%26lt%3Bp%26gt%3BThe%20Enity%20represented%20by%20Square%20is%20a%20User%20that%20interact%20with%20the%20system%20by%20sending%20or%20receiving%20informations.%26lt%3B%2Fp%26gt%3B%22%20style%3D%22text%3Bhtml%3D1%3BwhiteSpace%3Dwrap%3Boverflow%3Dhidden%3Brounded%3D0%3BfontStyle%3D0%3Bhorizontal%3D1%3BverticalAlign%3Dmiddle%3Balign%3Dleft%3BfontColor%3Dlight-dark(%23000000%2C%23121212)%3B%22%20vertex%3D%221%22%20parent%3D%221%22%3E%3CmxGeometry%20x%3D%22528%22%20y%3D%22246%22%20width%3D%22180%22%20height%3D%22120%22%20as%3D%22geometry%22%2F%3E%3C%2FmxCell%3E%3C%2Froot%3E%3C%2FmxGraphModel%3E&lt;/span&gt;&lt;/p&gt;" style="text;html=1;whiteSpace=wrap;overflow=hidden;rounded=0;fontStyle=0;horizontal=1;verticalAlign=middle;align=left;fontColor=light-dark(#000000,#121212);" parent="1" vertex="1">
          <mxGeometry x="511" y="639" width="180" height="120" as="geometry" />
        </mxCell>
        <mxCell id="GoHEcweU7X1IVzDICbqi-47" value="" style="line;strokeWidth=4;html=1;perimeter=backbonePerimeter;points=[];outlineConnect=0;" parent="1" vertex="1">
          <mxGeometry x="169" y="839" width="576" height="10" as="geometry" />
        </mxCell>
        <mxCell id="GoHEcweU7X1IVzDICbqi-49" value="" style="endArrow=classic;html=1;rounded=0;fillColor=#f8cecc;strokeColor=#b85450;" parent="1" edge="1">
          <mxGeometry width="50" height="50" relative="1" as="geometry">
            <mxPoint x="254" y="934" as="sourcePoint" />
            <mxPoint x="366" y="934" as="targetPoint" />
          </mxGeometry>
        </mxCell>
        <mxCell id="GoHEcweU7X1IVzDICbqi-50" value="&lt;h1 style=&quot;margin-top: 0px;&quot;&gt;Data Flow&lt;/h1&gt;&lt;p&gt;The Data Flow represented by Arrow is a Shape that Connections and Direction of informations.&lt;span style=&quot;color: rgba(0, 0, 0, 0); font-family: monospace; font-size: 0px; text-wrap-mode: nowrap; background-color: transparent;&quot;&gt;%3CmxGraphModel%3E%3Croot%3E%3CmxCell%20id%3D%220%22%2F%3E%3CmxCell%20id%3D%221%22%20parent%3D%220%22%2F%3E%3CmxCell%20id%3D%222%22%20value%3D%22%26lt%3Bh1%20style%3D%26quot%3Bmargin-top%3A%200px%3B%26quot%3B%26gt%3BEntity%26lt%3B%2Fh1%26gt%3B%26lt%3Bp%26gt%3BThe%20Enity%20represented%20by%20Square%20is%20a%20User%20that%20interact%20with%20the%20system%20by%20sending%20or%20receiving%20informations.%26lt%3B%2Fp%26gt%3B%22%20style%3D%22text%3Bhtml%3D1%3BwhiteSpace%3Dwrap%3Boverflow%3Dhidden%3Brounded%3D0%3BfontStyle%3D0%3Bhorizontal%3D1%3BverticalAlign%3Dmiddle%3Balign%3Dleft%3BfontColor%3Dlight-dark(%23000000%2C%23121212)%3B%22%20vertex%3D%221%22%20parent%3D%221%22%3E%3CmxGeometry%20x%3D%22528%22%20y%3D%22246%22%20width%3D%22180%22%20height%3D%22120%22%20as%3D%22geometry%22%2F%3E%3C%2FmxCell%3E%3C%2Froot%3E%3C%2FmxGraphModel%3E&lt;/span&gt;&lt;/p&gt;" style="text;html=1;whiteSpace=wrap;overflow=hidden;rounded=0;fontStyle=0;horizontal=1;verticalAlign=middle;align=left;fontColor=light-dark(#000000,#121212);" parent="1" vertex="1">
          <mxGeometry x="504" y="867" width="180" height="120" as="geometry" />
        </mxCell>
        <mxCell id="qmeBu4S3jbax9dmzvrjf-38" style="edgeStyle=orthogonalEdgeStyle;rounded=0;orthogonalLoop=1;jettySize=auto;html=1;entryX=0;entryY=0.5;entryDx=0;entryDy=0;" parent="1" source="qmeBu4S3jbax9dmzvrjf-36" target="qmeBu4S3jbax9dmzvrjf-37" edge="1">
          <mxGeometry relative="1" as="geometry" />
        </mxCell>
        <mxCell id="qmeBu4S3jbax9dmzvrjf-51" style="edgeStyle=orthogonalEdgeStyle;rounded=0;orthogonalLoop=1;jettySize=auto;html=1;entryX=0;entryY=0.5;entryDx=0;entryDy=0;" parent="1" source="qmeBu4S3jbax9dmzvrjf-36" target="qmeBu4S3jbax9dmzvrjf-49" edge="1">
          <mxGeometry relative="1" as="geometry" />
        </mxCell>
        <mxCell id="qmeBu4S3jbax9dmzvrjf-36" value="&lt;b&gt;&lt;font style=&quot;font-size: 9px;&quot;&gt;Admin&lt;/font&gt;&lt;/b&gt;" style="html=1;dashed=0;whiteSpace=wrap;fillColor=#fff2cc;strokeColor=#d6b656;rounded=0;glass=0;shadow=1;" parent="1" vertex="1">
          <mxGeometry x="903" y="224" width="120" height="108" as="geometry" />
        </mxCell>
        <mxCell id="qmeBu4S3jbax9dmzvrjf-37" value="1.0" style="swimlane;fontStyle=0;childLayout=stackLayout;horizontal=1;startSize=36;horizontalStack=0;resizeParent=1;resizeParentMax=0;resizeLast=0;collapsible=0;marginBottom=0;swimlaneFillColor=#ffffff;fillColor=#f8cecc;strokeColor=#b85450;rounded=1;shadow=1;" parent="1" vertex="1">
          <mxGeometry x="1148" y="212" width="147" height="134" as="geometry" />
        </mxCell>
        <mxCell id="qmeBu4S3jbax9dmzvrjf-39" value="Login/Register" style="text;html=1;align=center;verticalAlign=middle;whiteSpace=wrap;rounded=0;" parent="qmeBu4S3jbax9dmzvrjf-37" vertex="1">
          <mxGeometry y="36" width="147" height="98" as="geometry" />
        </mxCell>
        <mxCell id="qmeBu4S3jbax9dmzvrjf-40" value="Admin&amp;nbsp;&lt;div&gt;Details&lt;/div&gt;" style="text;html=1;align=center;verticalAlign=middle;resizable=0;points=[];autosize=1;strokeColor=none;fillColor=none;" parent="1" vertex="1">
          <mxGeometry x="1066" y="242" width="55" height="41" as="geometry" />
        </mxCell>
        <mxCell id="qmeBu4S3jbax9dmzvrjf-41" value="&lt;font size=&quot;1&quot;&gt;&lt;b&gt;1&lt;/b&gt;&lt;/font&gt;" style="html=1;dashed=0;whiteSpace=wrap;shape=mxgraph.dfd.dataStoreID;align=left;spacingLeft=3;points=[[0,0],[0.5,0],[1,0],[0,0.5],[1,0.5],[0,1],[0.5,1],[1,1]];fillColor=#e1d5e7;strokeColor=#9673a6;comic=0;enumerate=0;treeMoving=0;treeFolding=0;resizeHeight=1;resizeWidth=1;flipH=0;flipV=0;" parent="1" vertex="1">
          <mxGeometry x="1438" y="268" width="202" height="58" as="geometry" />
        </mxCell>
        <mxCell id="qmeBu4S3jbax9dmzvrjf-45" style="edgeStyle=orthogonalEdgeStyle;rounded=0;orthogonalLoop=1;jettySize=auto;html=1;entryX=0;entryY=0.5;entryDx=0;entryDy=0;" parent="1" source="qmeBu4S3jbax9dmzvrjf-39" target="qmeBu4S3jbax9dmzvrjf-41" edge="1">
          <mxGeometry relative="1" as="geometry" />
        </mxCell>
        <mxCell id="qmeBu4S3jbax9dmzvrjf-46" value="Stored Admin Credentials" style="text;html=1;align=center;verticalAlign=middle;whiteSpace=wrap;rounded=0;" parent="1" vertex="1">
          <mxGeometry x="1514" y="282" width="60" height="30" as="geometry" />
        </mxCell>
        <mxCell id="qmeBu4S3jbax9dmzvrjf-47" value="Password,&amp;nbsp;&lt;div&gt;username,&amp;nbsp;&lt;div&gt;email&lt;/div&gt;&lt;/div&gt;" style="text;html=1;align=center;verticalAlign=middle;resizable=0;points=[];autosize=1;strokeColor=none;fillColor=none;" parent="1" vertex="1">
          <mxGeometry x="1327" y="242" width="78" height="55" as="geometry" />
        </mxCell>
        <mxCell id="qmeBu4S3jbax9dmzvrjf-48" value="2.0" style="swimlane;fontStyle=0;childLayout=stackLayout;horizontal=1;startSize=36;horizontalStack=0;resizeParent=1;resizeParentMax=0;resizeLast=0;collapsible=0;marginBottom=0;swimlaneFillColor=#ffffff;fillColor=#f8cecc;strokeColor=#b85450;rounded=1;shadow=1;" parent="1" vertex="1">
          <mxGeometry x="1146" y="394" width="147" height="134" as="geometry" />
        </mxCell>
        <mxCell id="qmeBu4S3jbax9dmzvrjf-49" value="Manage Students" style="text;html=1;align=center;verticalAlign=middle;whiteSpace=wrap;rounded=0;" parent="qmeBu4S3jbax9dmzvrjf-48" vertex="1">
          <mxGeometry y="36" width="147" height="98" as="geometry" />
        </mxCell>
        <mxCell id="qmeBu4S3jbax9dmzvrjf-52" value="Students&lt;div&gt;Informations&lt;/div&gt;" style="text;html=1;align=center;verticalAlign=middle;resizable=0;points=[];autosize=1;strokeColor=none;fillColor=none;" parent="1" vertex="1">
          <mxGeometry x="999" y="385" width="84" height="41" as="geometry" />
        </mxCell>
        <mxCell id="qmeBu4S3jbax9dmzvrjf-53" value="&lt;font size=&quot;1&quot;&gt;&lt;b&gt;2&lt;/b&gt;&lt;/font&gt;" style="html=1;dashed=0;whiteSpace=wrap;shape=mxgraph.dfd.dataStoreID;align=left;spacingLeft=3;points=[[0,0],[0.5,0],[1,0],[0,0.5],[1,0.5],[0,1],[0.5,1],[1,1]];fillColor=#e1d5e7;strokeColor=#9673a6;comic=0;enumerate=0;treeMoving=0;treeFolding=0;resizeHeight=1;resizeWidth=1;flipH=0;flipV=0;" parent="1" vertex="1">
          <mxGeometry x="1436" y="450" width="202" height="58" as="geometry" />
        </mxCell>
        <mxCell id="qmeBu4S3jbax9dmzvrjf-54" value="Stored&lt;div&gt;Student Credential&amp;nbsp;&lt;/div&gt;" style="text;html=1;align=center;verticalAlign=middle;whiteSpace=wrap;rounded=0;" parent="1" vertex="1">
          <mxGeometry x="1507" y="635" width="60" height="30" as="geometry" />
        </mxCell>
        <mxCell id="qmeBu4S3jbax9dmzvrjf-55" style="edgeStyle=orthogonalEdgeStyle;rounded=0;orthogonalLoop=1;jettySize=auto;html=1;entryX=0;entryY=0.5;entryDx=0;entryDy=0;" parent="1" source="qmeBu4S3jbax9dmzvrjf-49" target="qmeBu4S3jbax9dmzvrjf-53" edge="1">
          <mxGeometry relative="1" as="geometry">
            <mxPoint x="1413" y="479" as="targetPoint" />
          </mxGeometry>
        </mxCell>
        <mxCell id="qmeBu4S3jbax9dmzvrjf-56" value="Students&amp;nbsp;&lt;div&gt;Names,&amp;nbsp;&lt;/div&gt;&lt;div&gt;Program,&amp;nbsp;&lt;/div&gt;&lt;div&gt;Year,&amp;nbsp;&lt;/div&gt;&lt;div&gt;and Department&lt;/div&gt;" style="edgeLabel;html=1;align=center;verticalAlign=middle;resizable=0;points=[];" parent="qmeBu4S3jbax9dmzvrjf-55" vertex="1" connectable="0">
          <mxGeometry x="-0.2339" y="1" relative="1" as="geometry">
            <mxPoint x="7" y="-41" as="offset" />
          </mxGeometry>
        </mxCell>
        <mxCell id="qmeBu4S3jbax9dmzvrjf-57" value="&lt;b&gt;&lt;font style=&quot;font-size: 9px;&quot;&gt;Students&lt;/font&gt;&lt;/b&gt;" style="html=1;dashed=0;whiteSpace=wrap;fillColor=#fff2cc;strokeColor=#d6b656;rounded=0;glass=0;shadow=1;" parent="1" vertex="1">
          <mxGeometry x="903" y="583" width="120" height="108" as="geometry" />
        </mxCell>
        <mxCell id="qmeBu4S3jbax9dmzvrjf-58" value="3.0" style="swimlane;fontStyle=0;childLayout=stackLayout;horizontal=1;startSize=36;horizontalStack=0;resizeParent=1;resizeParentMax=0;resizeLast=0;collapsible=0;marginBottom=0;swimlaneFillColor=#ffffff;fillColor=#f8cecc;strokeColor=#b85450;rounded=1;shadow=1;" parent="1" vertex="1">
          <mxGeometry x="1138" y="568" width="150" height="134" as="geometry" />
        </mxCell>
        <mxCell id="qmeBu4S3jbax9dmzvrjf-59" value="Student Login/&lt;div&gt;Registration&lt;/div&gt;" style="text;html=1;align=center;verticalAlign=middle;whiteSpace=wrap;rounded=0;" parent="qmeBu4S3jbax9dmzvrjf-58" vertex="1">
          <mxGeometry y="36" width="150" height="98" as="geometry" />
        </mxCell>
        <mxCell id="qmeBu4S3jbax9dmzvrjf-61" style="edgeStyle=orthogonalEdgeStyle;rounded=0;orthogonalLoop=1;jettySize=auto;html=1;entryX=0.022;entryY=0.339;entryDx=0;entryDy=0;entryPerimeter=0;" parent="1" source="qmeBu4S3jbax9dmzvrjf-57" target="qmeBu4S3jbax9dmzvrjf-59" edge="1">
          <mxGeometry relative="1" as="geometry" />
        </mxCell>
        <mxCell id="qmeBu4S3jbax9dmzvrjf-62" value="Student&amp;nbsp;&lt;div&gt;Credentials&lt;/div&gt;" style="edgeLabel;html=1;align=center;verticalAlign=middle;resizable=0;points=[];" parent="qmeBu4S3jbax9dmzvrjf-61" vertex="1" connectable="0">
          <mxGeometry x="0.1068" y="1" relative="1" as="geometry">
            <mxPoint x="-3" y="-27" as="offset" />
          </mxGeometry>
        </mxCell>
        <mxCell id="qmeBu4S3jbax9dmzvrjf-65" value="Student Password,&lt;div&gt;&amp;nbsp;username&lt;div&gt;email&lt;/div&gt;&lt;/div&gt;" style="edgeLabel;html=1;align=center;verticalAlign=middle;resizable=0;points=[];" parent="1" vertex="1" connectable="0">
          <mxGeometry x="1348.0044444444447" y="497" as="geometry">
            <mxPoint x="2" y="126" as="offset" />
          </mxGeometry>
        </mxCell>
        <mxCell id="qmeBu4S3jbax9dmzvrjf-72" style="edgeStyle=orthogonalEdgeStyle;rounded=0;orthogonalLoop=1;jettySize=auto;html=1;entryX=0;entryY=0.5;entryDx=0;entryDy=0;" parent="1" source="qmeBu4S3jbax9dmzvrjf-59" target="qmeBu4S3jbax9dmzvrjf-70" edge="1">
          <mxGeometry relative="1" as="geometry" />
        </mxCell>
        <mxCell id="qmeBu4S3jbax9dmzvrjf-73" value="Student Records" style="text;html=1;align=center;verticalAlign=middle;whiteSpace=wrap;rounded=0;" parent="1" vertex="1">
          <mxGeometry x="1509" y="460" width="60" height="30" as="geometry" />
        </mxCell>
        <mxCell id="qmeBu4S3jbax9dmzvrjf-74" value="4.0" style="swimlane;fontStyle=0;childLayout=stackLayout;horizontal=1;startSize=36;horizontalStack=0;resizeParent=1;resizeParentMax=0;resizeLast=0;collapsible=0;marginBottom=0;swimlaneFillColor=#ffffff;fillColor=#f8cecc;strokeColor=#b85450;rounded=1;shadow=1;" parent="1" vertex="1">
          <mxGeometry x="1148" y="767" width="147" height="134" as="geometry" />
        </mxCell>
        <mxCell id="qmeBu4S3jbax9dmzvrjf-75" value="Manage Students" style="text;html=1;align=center;verticalAlign=middle;whiteSpace=wrap;rounded=0;" parent="qmeBu4S3jbax9dmzvrjf-74" vertex="1">
          <mxGeometry y="36" width="147" height="98" as="geometry" />
        </mxCell>
        <mxCell id="qmeBu4S3jbax9dmzvrjf-80" value="Students&lt;div&gt;Informations&lt;/div&gt;" style="text;html=1;align=center;verticalAlign=middle;resizable=0;points=[];autosize=1;strokeColor=none;fillColor=none;" parent="1" vertex="1">
          <mxGeometry x="996" y="750" width="84" height="41" as="geometry" />
        </mxCell>
        <mxCell id="qmeBu4S3jbax9dmzvrjf-82" style="edgeStyle=orthogonalEdgeStyle;rounded=0;orthogonalLoop=1;jettySize=auto;html=1;entryX=0.006;entryY=0.398;entryDx=0;entryDy=0;entryPerimeter=0;" parent="1" source="qmeBu4S3jbax9dmzvrjf-57" target="qmeBu4S3jbax9dmzvrjf-75" edge="1">
          <mxGeometry relative="1" as="geometry" />
        </mxCell>
        <mxCell id="qmeBu4S3jbax9dmzvrjf-83" style="edgeStyle=orthogonalEdgeStyle;rounded=0;orthogonalLoop=1;jettySize=auto;html=1;entryX=1;entryY=0.5;entryDx=0;entryDy=0;" parent="1" source="qmeBu4S3jbax9dmzvrjf-75" target="qmeBu4S3jbax9dmzvrjf-53" edge="1">
          <mxGeometry relative="1" as="geometry" />
        </mxCell>
        <mxCell id="qmeBu4S3jbax9dmzvrjf-84" value="Students&amp;nbsp;&lt;div&gt;Names,&amp;nbsp;&lt;/div&gt;&lt;div&gt;Program,&amp;nbsp;&lt;/div&gt;&lt;div&gt;Year,&amp;nbsp;&lt;/div&gt;&lt;div&gt;and Department&lt;/div&gt;" style="edgeLabel;html=1;align=center;verticalAlign=middle;resizable=0;points=[];" parent="1" vertex="1" connectable="0">
          <mxGeometry x="1371.0044444444447" y="806" as="geometry" />
        </mxCell>
        <mxCell id="qmeBu4S3jbax9dmzvrjf-85" value="5.0" style="swimlane;fontStyle=0;childLayout=stackLayout;horizontal=1;startSize=36;horizontalStack=0;resizeParent=1;resizeParentMax=0;resizeLast=0;collapsible=0;marginBottom=0;swimlaneFillColor=#ffffff;fillColor=#f8cecc;strokeColor=#b85450;rounded=1;shadow=1;" parent="1" vertex="1">
          <mxGeometry x="1676" y="78" width="147" height="134" as="geometry" />
        </mxCell>
        <mxCell id="qmeBu4S3jbax9dmzvrjf-86" value="View Student&amp;nbsp;&lt;div&gt;Records&lt;/div&gt;" style="text;html=1;align=center;verticalAlign=middle;whiteSpace=wrap;rounded=0;" parent="qmeBu4S3jbax9dmzvrjf-85" vertex="1">
          <mxGeometry y="36" width="147" height="98" as="geometry" />
        </mxCell>
        <mxCell id="qmeBu4S3jbax9dmzvrjf-88" style="edgeStyle=orthogonalEdgeStyle;rounded=0;orthogonalLoop=1;jettySize=auto;html=1;entryX=0.602;entryY=1.011;entryDx=0;entryDy=0;entryPerimeter=0;" parent="1" source="qmeBu4S3jbax9dmzvrjf-53" target="qmeBu4S3jbax9dmzvrjf-86" edge="1">
          <mxGeometry relative="1" as="geometry" />
        </mxCell>
        <mxCell id="qmeBu4S3jbax9dmzvrjf-89" value="Student&amp;nbsp;&lt;div&gt;Data&#39;s&lt;/div&gt;" style="edgeLabel;html=1;align=center;verticalAlign=middle;resizable=0;points=[];" parent="qmeBu4S3jbax9dmzvrjf-88" vertex="1" connectable="0">
          <mxGeometry x="0.1109" y="1" relative="1" as="geometry">
            <mxPoint x="-44" y="-51" as="offset" />
          </mxGeometry>
        </mxCell>
        <mxCell id="qmeBu4S3jbax9dmzvrjf-90" style="edgeStyle=orthogonalEdgeStyle;rounded=0;orthogonalLoop=1;jettySize=auto;html=1;entryX=0.5;entryY=0;entryDx=0;entryDy=0;" parent="1" source="qmeBu4S3jbax9dmzvrjf-86" target="qmeBu4S3jbax9dmzvrjf-36" edge="1">
          <mxGeometry relative="1" as="geometry" />
        </mxCell>
        <mxCell id="qmeBu4S3jbax9dmzvrjf-91" value="Retrieved Student Information&#39;s" style="text;html=1;align=center;verticalAlign=middle;resizable=0;points=[];autosize=1;strokeColor=none;fillColor=none;" parent="1" vertex="1">
          <mxGeometry x="1240" y="129" width="186" height="26" as="geometry" />
        </mxCell>
        <mxCell id="qmeBu4S3jbax9dmzvrjf-92" value="6.0" style="swimlane;fontStyle=0;childLayout=stackLayout;horizontal=1;startSize=36;horizontalStack=0;resizeParent=1;resizeParentMax=0;resizeLast=0;collapsible=0;marginBottom=0;swimlaneFillColor=#ffffff;fillColor=#f8cecc;strokeColor=#b85450;rounded=1;shadow=1;" parent="1" vertex="1">
          <mxGeometry x="819" y="873" width="147" height="134" as="geometry" />
        </mxCell>
        <mxCell id="qmeBu4S3jbax9dmzvrjf-93" value="Update Student&amp;nbsp;&lt;div&gt;Records&lt;/div&gt;" style="text;html=1;align=center;verticalAlign=middle;whiteSpace=wrap;rounded=0;" parent="qmeBu4S3jbax9dmzvrjf-92" vertex="1">
          <mxGeometry y="36" width="147" height="98" as="geometry" />
        </mxCell>
        <mxCell id="qmeBu4S3jbax9dmzvrjf-94" style="edgeStyle=orthogonalEdgeStyle;rounded=0;orthogonalLoop=1;jettySize=auto;html=1;entryX=0.317;entryY=0.001;entryDx=0;entryDy=0;entryPerimeter=0;" parent="1" source="qmeBu4S3jbax9dmzvrjf-36" target="qmeBu4S3jbax9dmzvrjf-92" edge="1">
          <mxGeometry relative="1" as="geometry">
            <Array as="points">
              <mxPoint x="963" y="564" />
              <mxPoint x="866" y="564" />
            </Array>
          </mxGeometry>
        </mxCell>
        <mxCell id="qmeBu4S3jbax9dmzvrjf-95" value="Students Data" style="edgeLabel;html=1;align=center;verticalAlign=middle;resizable=0;points=[];" parent="qmeBu4S3jbax9dmzvrjf-94" vertex="1" connectable="0">
          <mxGeometry x="-0.0378" y="-3" relative="1" as="geometry">
            <mxPoint x="7" y="-12" as="offset" />
          </mxGeometry>
        </mxCell>
        <mxCell id="qmeBu4S3jbax9dmzvrjf-96" style="edgeStyle=orthogonalEdgeStyle;rounded=0;orthogonalLoop=1;jettySize=auto;html=1;entryX=0.999;entryY=0.724;entryDx=0;entryDy=0;entryPerimeter=0;" parent="1" source="qmeBu4S3jbax9dmzvrjf-93" target="qmeBu4S3jbax9dmzvrjf-53" edge="1">
          <mxGeometry relative="1" as="geometry" />
        </mxCell>
        <mxCell id="qmeBu4S3jbax9dmzvrjf-97" value="Updated Student Records" style="text;html=1;align=center;verticalAlign=middle;resizable=0;points=[];autosize=1;strokeColor=none;fillColor=none;" parent="1" vertex="1">
          <mxGeometry x="1302" y="936" width="156" height="26" as="geometry" />
        </mxCell>
      </root>
    </mxGraphModel>
  </diagram>
</mxfile>
